<?xml version="1.0" encoding="utf-8"?>
<!-- Generator: Adobe Illustrator 23.0.1, SVG Export Plug-In . SVG Version: 6.00 Build 0)  -->
<svg version="1.1" xmlns="http://www.w3.org/2000/svg" xmlns:xlink="http://www.w3.org/1999/xlink" x="0px" y="0px"
	 viewBox="0 0 108 108" style="enable-background:new 0 0 108 108;" xml:space="preserve">
<style type="text/css">
	.st0{fill:#262626;}
	.st1{fill:#33CCFF;}
	.st2{fill:#FFFFFF;}
</style>
<g id="Layer_2">
	<rect class="st0" width="108" height="108"/>
</g>
<g id="Layer_1">
	<g>
		<path class="st1" d="M86,58.7c-1.9-2.6-4.4-4.7-7-6.6c-1.4-1-2.9-1.8-4.3-2.9c-1.4-1.1-2.9-2.3-4.4-3.3c-4-3-8.2-5.7-12.3-8.6
			c-1.7-1.2-2.5-3-2.6-5c0-0.9,0.4-1.2,1.3-1.1c0.8,0.1,1.7,0.2,2.4,0.5c1.4,0.5,2.9,0.8,4.4,0.8c0.7,0,1.4-0.2,2-0.6
			c1.4-0.9,2.6-2.1,3.6-3.5c0,0,0-0.1,0-0.2c-1,0-2,0-3,0c-0.4,0-0.6,0.1-0.8,0.4c-0.7,0.7-1.5,1.1-2.4,1.3c-1.8,0.5-3.5,0-5.4-0.7
			c1.6-0.2,3.2,0.3,4.6-1c-1.2,0-2.2,0-3.2,0c-1,0-1.8,0.8-2.8,0.7c1.1,0.7,2.2,1.5,3.2,2.4c-0.5-0.1-1.1-0.3-1.6-0.3
			c-0.8,0-1.2-0.5-1.7-1c-0.1-0.1-0.2-0.3-0.3-0.4c-1-1.1-1.9-2.3-3-3.3c-0.2-0.2-0.4-0.5-0.8-0.3c1,1.3,1.8,2.8,2.6,4.2
			c0,0-0.1,0.1-0.1,0.1c-1-0.1-1.8-0.5-2.5-1.2c-0.1-0.2-0.3-0.3-0.4-0.5c-0.4-0.7-0.8-1.4-1.3-2c-0.7-0.9-1.3-1.7-2-2.6
			c-0.2-0.3-0.5-0.5-0.8-0.6c-1-0.4-2-0.7-3.1-1.1c-1.4-0.5-2.8-0.4-4.3-0.2c-1,0.1-1.5,0.8-1.4,1.9c0.1,0.9,0.2,1.7,0,2.6
			c-0.1,0.9,0,1.7,0.3,2.5c0.5,1.5,1,3,1.5,4.5c0.6,1.7,1.2,3.4,2.2,4.8c2.1,3,4.5,5.8,7.3,8.2c3.3,2.8,6.7,5.5,10,8.3
			c1.9,1.6,3.9,3.3,5.5,5.2c0.7,0.9,1.4,1.8,1.2,3c0.3,0,0.5,0.1,0.7,0.1c1.8,0,3.7,0.1,5.5,0.1c0.8,0,0.9-0.1,0.8-0.9
			c0-0.3-0.2-0.7-0.3-1c-0.3-0.6-0.7-1.1-1.1-1.6c-1.5-1.8-3.3-3.3-5.2-4.7c-4-3.2-8-6.3-12-9.4c-1.5-1.2-3.1-2.3-4.4-3.7
			c-1.4-1.5-2.7-3-4-4.5c-1-1.2-1.7-2.5-2.1-4.1c-0.5-1.5-0.3-3,0.3-4.4c0.4-0.9,1.1-1.2,2.1-1c0.8,0.2,1.6,0.5,2.5,0.8
			c0.8,0.3,1.6,0.6,2.5,0.9c-0.2,0.1-0.5,0.1-0.7,0.1c-1.5,0-1.7,0.3-2.2,1.6c-0.2,0.7-0.1,1.3,0.2,1.9c0.2,0.5,0.5,1,0.8,1.4
			c1.2,2,2.6,3.9,4.4,5.3c6,4.7,12.3,9,18.3,13.6c1.7,1.3,3.5,2.6,5,4.2c1.4,1.5,2.8,3.1,2.9,5.4c2.1,0,4.2,0,6.3,0
			c0.8,0,0.8,0,0.7-0.8C87.5,61.1,86.8,59.9,86,58.7z"/>
		<path class="st1" d="M32,57.8c-0.9-1.8-1.9-3.5-2.7-5.3c-1.6-3.3-3-6.7-3.3-10.4c-0.3-3.6,0.1-7,1.1-10.5c0.3-1,0.6-1.9,1-2.8
			c-0.4-0.2-0.7,0-1,0.2c-1.3,0.8-2.6,1.8-3.9,2.7c-1.4,0.9-2.5,1.9-3.3,3.3c-0.5,0.8-1.2,1.5-1.6,2.4c0.3,0,0.6-0.2,0.8-0.4
			c0,0,0.1-0.1,0.1-0.1c0,0,0,0,0,0c0,0,0.1-0.1,0.1-0.1c1.6-1.2,3-2.7,4.5-4c0.2-0.2,0.4-0.5,0.7-0.5c0.2,0.3-0.1,0.4-0.2,0.5
			c-1.9,1.7-3.6,3.7-5.3,5.6c-1.2,1.3-2.4,2.7-3.8,3.7c-1,0.8-1.9,1.7-2.7,2.8c-1.3,1.8-2.7,3.6-4,5.4c0.1,0,0.2,0.1,0.2,0
			c0.2-0.1,0.4-0.3,0.6-0.4c3-2.2,5.5-4.9,7.8-7.9c1.1-1.4,2.1-2.8,3.2-4.2c0.1,0.1,0.1,0.2,0.2,0.2c-0.8,1.3-1.6,2.6-2.4,3.9
			c-2.3,3.7-4.9,7.3-8,10.5c-0.5,0.5-1.1,1.1-1.6,1.6v4.8c0.3-0.5,0.6-1,1-1.4c1.6-1.9,3.1-3.8,4.4-5.9c2.4-3.9,4.5-7.9,6.5-12
			c0.8-1.5,1.6-3,2.6-4.4c0.1,0,0.1,0.1,0.2,0.1c-0.3,0.6-0.6,1.2-0.9,1.8c-1.4,3.4-2.9,6.9-4.1,10.4c-0.7,1.9-1.4,3.8-2.3,5.7
			c-0.2,0.5-0.4,1-0.5,1.6c-0.1,0.5-0.1,0.9-0.2,1.4c-0.4,2.3-1.2,4.4-3,6.1c0,0,0,0.1,0,0.2c2.1,0,4.3,0,6.4,0
			c0.4,0,0.6-0.2,0.8-0.4c0.9-1,1.2-2.2,1.3-3.6c0.1-1.5-0.1-2.9-0.2-4.4c-0.2-1.9-0.5-3.7,0-5.6c0.6-2.3,0.7-4.6,1.4-6.9
			c0.8-2.4,1.4-4.9,2.4-7.2c0.5-1,1-2,1.7-3c0.2,0.4,0,0.7-0.1,0.9c-1,2.4-1.6,4.9-2,7.5c-0.5,2.6-0.3,5.2-0.4,7.7
			c0,0.2,0,0.3,0.1,0.5c0.3,1.2,0.6,2.5,0.9,3.7c0.6,2.1,1.4,4.1,1.9,6.2c0.4,1.6,0.6,3.2-0.5,4.6c0,0,0,0.1,0.1,0.2c2,0,4,0,6,0
			c0.9,0,1-0.1,1.2-0.9c0.1-0.4,0.1-0.7,0.1-1.1C32.9,59.7,32.5,58.7,32,57.8z"/>
		<path class="st1" d="M18.1,37.4C18.1,37.4,18.1,37.4,18.1,37.4C18.1,37.4,18.1,37.4,18.1,37.4C18.1,37.4,18.1,37.4,18.1,37.4
			C18.1,37.4,18.1,37.4,18.1,37.4z"/>
		<path class="st1" d="M18.1,37.5C18.1,37.5,18.1,37.5,18.1,37.5C18.2,37.5,18.2,37.5,18.1,37.5C18.2,37.5,18.2,37.5,18.1,37.5
			C18.2,37.5,18.2,37.5,18.1,37.5C18.2,37.4,18.2,37.4,18.1,37.5C18.2,37.4,18.1,37.4,18.1,37.5C18.1,37.4,18.1,37.5,18.1,37.5
			C18.1,37.5,18.1,37.5,18.1,37.5z"/>
		<path class="st1" d="M101.7,63c-0.1-0.9-0.3-1.7-0.7-2.5c-0.7-1.5-0.7-3.1-0.6-4.7c0.1-1.5,0.1-3,0.1-4.5c0-0.5-0.2-0.9-0.5-1.2
			c-1.2-1.5-2.5-3.1-3.7-4.7c-0.6-0.7-1.1-1.5-1.7-2.1c-0.2,0.2-0.1,0.4-0.1,0.6c-0.1,1.2-0.6,1.7-1.9,1.6c-0.7-0.1-1.4-0.3-2-0.6
			c-1.5-0.7-2.9-1.5-4.4-2.1c-3.1-1.4-6.2-2.5-9.4-3.6c-1.3-0.5-2.3-1.2-2.7-2.6c-0.1-0.3-0.3-0.5-0.5-0.7c-0.2-0.1-0.5-0.2-0.5-0.4
			c1.2-2.5,2.3-4.9,3.5-7.4c-1.1,0-2.1,0-3.1,0c-0.5,0-0.7,0.1-0.9,0.5c-0.9,1.7-1.9,3.3-2.8,5c-0.4,0.8-0.4,0.8-1.3,0.6
			c-0.8-0.1-1.5-0.3-2.3-0.4c-0.5-0.1-1-0.1-1.5-0.1c-0.5,0-0.8,0.2-1.1,0.6c0.6,0.5,1.3,1,2,1.4c1.8,1.1,3.5,2.2,5.4,3
			c1.5,0.6,3,1.2,4.1,2.5c1.5,1.9,3.5,3.4,5.2,5.2c0.6,0.7,1.4,1.2,2.2,1.6c3.8,2.3,7.2,5,9.6,8.8c1.3,1.9,2.5,3.9,2.7,6.3
			c0,0.4,0.3,0.3,0.5,0.3c2,0,4.1,0.1,6.1,0.1C101.7,63.6,101.8,63.4,101.7,63z"/>
		<path class="st1" d="M59.6,61c-0.4-0.7-0.9-1.3-1.5-1.9c-2-2.2-4.3-4.2-6.6-6.1c-3-2.6-6.1-5.3-8.7-8.4c-1.6-2-3.1-4-4.1-6.3
			c-1-2.5-1.9-5-2.9-7.4c-0.2-0.4-0.2-0.8-0.3-1.3c-0.1-1-0.2-2.1-0.3-3.1c-0.1-1.5,0.1-3,1-4.3c0.1-0.1,0.2-0.2,0-0.4
			c-0.6,0.4-1.2,0.8-1.8,1.1c-1.1,0.6-1.7,1.6-1.9,2.8c0,0.2-0.1,0.3-0.1,0.5c-0.1,1.5,0.1,3,0.1,4.6c0,1.4,0.4,2.7,0.9,4
			c0.7,1.8,1.4,3.6,2.1,5.4c0.7,1.6,1.5,3.2,2.5,4.7c2,2.8,4.3,5.3,6.7,7.7c2,2,4.1,3.9,6,6c0.7,0.8,1.4,1.6,1.8,2.5
			c0.3,0.6,0.6,1.2,0.2,2.1c2.2,0,4.2,0,6.2,0c1,0,1.2-0.3,0.9-1.2C60,61.6,59.8,61.3,59.6,61z"/>
		<path class="st1" d="M45.3,59.4c-1.4-2.1-3.2-3.8-4.9-5.7c-2.1-2.4-4.1-4.8-5.7-7.6c-1.3-2.4-2.3-4.9-3.2-7.4
			c-0.4-1.3-0.9-2.5-1.1-3.9c-0.4-2.6-0.1-5.2,0.2-7.7c0-0.4,0.4-0.7,0.3-1.2c-0.2,0-0.3,0.1-0.3,0.1c-1.1,0.9-1.7,2.1-2,3.5
			c-0.2,1-0.3,2-0.5,3c-0.3,1.7-0.4,3.5-0.1,5.2c0.5,3.4,1.6,6.7,3.1,9.8c1.5,3.1,3.5,5.9,5.5,8.6c0.9,1.2,1.8,2.4,2.5,3.8
			c0.4,0.9,0.7,1.8,0.1,3c2.2,0,4.3,0,6.4,0c0.7,0,0.8-0.1,0.9-0.8c0-0.4-0.1-0.8-0.2-1.2C46,60.4,45.7,59.9,45.3,59.4z"/>
		<path class="st1" d="M77.7,37c0.8,0.4,1.6,0.2,2.3-0.2c0.8-0.5,1.6-0.9,1.9-1.9c0.5-1.8,1-3.5,1.5-5.3c0.1-0.3,0-0.5-0.1-0.8
			c-0.3-0.4-0.6-0.7-1.2-0.6c-0.4,0.1-0.9,0-1.3,0c-0.5-0.1-0.7,0.1-0.9,0.6c-0.7,1.9-1.4,3.8-2.1,5.7c-0.3,0.7-0.6,1.4-1.3,1.9
			C76.8,36.8,77.2,36.8,77.7,37z"/>
		<path class="st1" d="M81.6,37.9c-0.4,0-0.7,0-1.2,0.1c1.8,0.6,3.5,1.3,5.2,1.9c0.8,0.3,1.5,0.5,2.4,0.4c1.1,0,1.7-0.6,2-1.7
			c0-0.2,0-0.4,0.1-0.6c0.1-0.3,0-0.6-0.2-0.8c-1.1-1.4-2.3-2.8-3.4-4.3c-0.2,0.3-0.2,0.5-0.2,0.7c-0.2,0.8-0.3,1.7-0.6,2.5
			c-0.4,1.1-1.2,1.6-2.3,1.7C82.7,38,82.1,37.9,81.6,37.9z"/>
		<path class="st1" d="M24.1,29.2c0.9-0.4,1.5-0.8,2.2-1.2C25.2,27.6,24.7,28.3,24.1,29.2z"/>
	</g>
	<g>
		<g>
			<path class="st2" d="M54.3,80.5c-0.6,0-1.2-0.1-1.6-0.3c-0.5-0.2-0.8-0.4-1.1-0.8c-0.3-0.3-0.5-0.7-0.6-1.2
				c-0.1-0.5-0.2-1-0.2-1.5V73h-2.4v-1.3l2.5-0.1l0.2-2.8h1.5v2.8h4.2V73h-4.2v3.9c0,0.8,0.2,1.3,0.5,1.7s0.9,0.6,1.7,0.6
				c0.4,0,0.7,0,1.1-0.1c0.3-0.1,0.6-0.2,1-0.3l0.4,1.3c-0.4,0.1-0.8,0.2-1.3,0.4C55.4,80.5,54.9,80.5,54.3,80.5z"/>
			<path class="st2" d="M64,80.5c-0.7,0-1.3-0.1-1.9-0.3c-0.6-0.2-1.1-0.5-1.5-0.9c-0.4-0.4-0.8-0.9-1-1.5c-0.2-0.6-0.4-1.2-0.4-2
				c0-0.7,0.1-1.4,0.4-1.9c0.3-0.6,0.6-1.1,1-1.4c0.4-0.4,0.9-0.7,1.4-0.9s1.1-0.3,1.7-0.3c0.6,0,1.2,0.1,1.7,0.3s0.9,0.5,1.3,0.9
				c0.3,0.4,0.6,0.8,0.8,1.3c0.2,0.5,0.3,1.1,0.3,1.7c0,0.2,0,0.4,0,0.5c0,0.2,0,0.3-0.1,0.4H61c0.1,0.9,0.4,1.6,1,2
				c0.6,0.4,1.3,0.7,2.2,0.7c0.5,0,0.9-0.1,1.3-0.2c0.4-0.1,0.8-0.3,1.2-0.6l0.6,1.1c-0.5,0.3-1,0.5-1.5,0.7
				C65.3,80.4,64.7,80.5,64,80.5z M63.8,72.7c-0.3,0-0.7,0.1-1,0.2s-0.6,0.3-0.8,0.5c-0.2,0.2-0.4,0.5-0.6,0.8s-0.3,0.6-0.4,1h5.1
				c-0.1-0.8-0.3-1.4-0.7-1.8S64.5,72.7,63.8,72.7z"/>
			<path class="st2" d="M71.3,80.3v-8.8h1.5l0.1,2.1H73c0.5-0.7,1-1.3,1.7-1.7c0.7-0.4,1.4-0.6,2.2-0.6c0.3,0,0.7,0,0.9,0.1
				c0.3,0.1,0.5,0.1,0.8,0.3l-0.4,1.5c-0.3-0.1-0.6-0.2-0.8-0.2s-0.5-0.1-0.8-0.1c-0.6,0-1.2,0.2-1.8,0.5s-1.1,1-1.6,1.9v5H71.3z"/>
			<path class="st2" d="M82.1,80.3v-8.8h1.5l0.1,2.1h0.1c0.5-0.7,1-1.3,1.7-1.7c0.7-0.4,1.4-0.6,2.2-0.6c0.3,0,0.7,0,0.9,0.1
				c0.3,0.1,0.5,0.1,0.8,0.3L89,73.2c-0.3-0.1-0.6-0.2-0.8-0.2c-0.2,0-0.5-0.1-0.8-0.1c-0.6,0-1.2,0.2-1.8,0.5s-1.1,1-1.6,1.9v5
				H82.1z"/>
			<path class="st2" d="M94.8,80.5c-0.4,0-0.8-0.1-1.2-0.2s-0.7-0.3-0.9-0.5c-0.3-0.2-0.5-0.5-0.6-0.8c-0.2-0.3-0.2-0.7-0.2-1
				c0-0.5,0.1-0.9,0.4-1.3c0.2-0.4,0.6-0.7,1.1-1c0.5-0.3,1.1-0.5,1.9-0.6s1.7-0.3,2.8-0.4c0-0.5-0.2-1-0.5-1.4
				c-0.3-0.4-0.9-0.6-1.7-0.6c-0.5,0-1.1,0.1-1.6,0.3c-0.5,0.2-1,0.4-1.4,0.7l-0.7-1.2c0.2-0.1,0.5-0.3,0.8-0.4s0.6-0.3,1-0.4
				s0.7-0.2,1.1-0.3c0.4-0.1,0.7-0.1,1.1-0.1c1.2,0,2.1,0.3,2.8,1c0.6,0.7,0.9,1.6,0.9,2.7v5.3h-1.5l-0.1-1.1h-0.1
				c-0.5,0.4-1,0.7-1.6,0.9C96,80.4,95.4,80.5,94.8,80.5z M95.3,79.1c0.5,0,0.9-0.1,1.4-0.3s0.9-0.5,1.4-0.9v-2.1
				c-0.9,0.1-1.6,0.2-2.2,0.3c-0.6,0.1-1,0.3-1.4,0.4s-0.6,0.4-0.7,0.6c-0.1,0.2-0.2,0.5-0.2,0.7c0,0.4,0.2,0.8,0.5,1
				C94.4,79,94.8,79.1,95.3,79.1z"/>
		</g>
	</g>
</g>
</svg>
